<mxfile host="65bd71144e">
    <diagram id="WfDa9CEmzFsQenRABmy3" name="Page-1">
        <mxGraphModel dx="1621" dy="590" grid="1" gridSize="10" guides="1" tooltips="1" connect="1" arrows="1" fold="1" page="1" pageScale="1" pageWidth="850" pageHeight="1100" math="0" shadow="0">
            <root>
                <mxCell id="0"/>
                <mxCell id="1" parent="0"/>
                <mxCell id="37" value="" style="group" vertex="1" connectable="0" parent="1">
                    <mxGeometry x="280" y="200" width="200" height="220" as="geometry"/>
                </mxCell>
                <mxCell id="15" value="Springer website" style="rounded=0;whiteSpace=wrap;html=1;dashed=1;align=left;verticalAlign=top;fontStyle=1" vertex="1" parent="37">
                    <mxGeometry width="200" height="220" as="geometry"/>
                </mxCell>
                <mxCell id="16" value="chapter" style="rounded=0;whiteSpace=wrap;html=1;" vertex="1" parent="37">
                    <mxGeometry x="30" y="140" width="120" height="60" as="geometry"/>
                </mxCell>
                <mxCell id="18" value="book" style="rounded=0;whiteSpace=wrap;html=1;" vertex="1" parent="37">
                    <mxGeometry x="30" y="40" width="120" height="60" as="geometry"/>
                </mxCell>
                <mxCell id="19" value="" style="endArrow=classic;startArrow=classic;html=1;entryX=0.25;entryY=1;entryDx=0;entryDy=0;exitX=0.25;exitY=0;exitDx=0;exitDy=0;" edge="1" parent="37" source="16" target="18">
                    <mxGeometry width="50" height="50" as="geometry">
                        <mxPoint x="350" y="240" as="sourcePoint"/>
                        <mxPoint x="400" y="190" as="targetPoint"/>
                    </mxGeometry>
                </mxCell>
                <mxCell id="21" value="book key" style="text;html=1;strokeColor=none;fillColor=none;align=left;verticalAlign=middle;whiteSpace=wrap;rounded=0;dashed=1;" vertex="1" parent="37">
                    <mxGeometry x="70" y="110" width="110" height="20" as="geometry"/>
                </mxCell>
                <mxCell id="29" value="" style="group" vertex="1" connectable="0" parent="1">
                    <mxGeometry y="200" width="200" height="120" as="geometry"/>
                </mxCell>
                <mxCell id="23" value="Front matter" style="rounded=0;whiteSpace=wrap;html=1;dashed=1;align=left;verticalAlign=top;fontStyle=1" vertex="1" parent="29">
                    <mxGeometry width="200" height="120" as="geometry"/>
                </mxCell>
                <mxCell id="24" value="member" style="rounded=0;whiteSpace=wrap;html=1;" vertex="1" parent="29">
                    <mxGeometry x="30" y="40" width="120" height="60" as="geometry"/>
                </mxCell>
                <mxCell id="26" value="dblp key" style="text;html=1;strokeColor=none;fillColor=none;align=center;verticalAlign=middle;whiteSpace=wrap;rounded=0;dashed=1;" vertex="1" parent="1">
                    <mxGeometry x="190" y="250" width="110" height="20" as="geometry"/>
                </mxCell>
                <mxCell id="28" value="name" style="text;html=1;strokeColor=none;fillColor=none;align=center;verticalAlign=middle;whiteSpace=wrap;rounded=0;dashed=1;" vertex="1" parent="1">
                    <mxGeometry x="100" y="500" width="110" height="20" as="geometry"/>
                </mxCell>
                <mxCell id="32" value="doi" style="text;html=1;strokeColor=none;fillColor=none;align=center;verticalAlign=middle;whiteSpace=wrap;rounded=0;dashed=1;" vertex="1" parent="1">
                    <mxGeometry x="475" y="350" width="110" height="20" as="geometry"/>
                </mxCell>
                <mxCell id="25" value="" style="endArrow=classic;startArrow=classic;html=1;entryX=0;entryY=0.5;entryDx=0;entryDy=0;exitX=1;exitY=0.5;exitDx=0;exitDy=0;" edge="1" parent="1" source="24" target="18">
                    <mxGeometry width="50" height="50" relative="1" as="geometry">
                        <mxPoint x="160" y="280" as="sourcePoint"/>
                        <mxPoint x="370" y="280" as="targetPoint"/>
                    </mxGeometry>
                </mxCell>
                <mxCell id="3" value="DBLP dump" style="rounded=0;whiteSpace=wrap;html=1;dashed=1;align=left;verticalAlign=top;fontStyle=1" parent="1" vertex="1">
                    <mxGeometry x="280" y="450" width="530" height="160" as="geometry"/>
                </mxCell>
                <mxCell id="2" value="article&lt;br&gt;person" style="rounded=0;whiteSpace=wrap;html=1;" parent="1" vertex="1">
                    <mxGeometry x="470" y="490" width="120" height="60" as="geometry"/>
                </mxCell>
                <mxCell id="4" value="doi" style="rounded=0;whiteSpace=wrap;html=1;" parent="1" vertex="1">
                    <mxGeometry x="630" y="490" width="120" height="60" as="geometry"/>
                </mxCell>
                <mxCell id="5" value="person" style="rounded=0;whiteSpace=wrap;html=1;" parent="1" vertex="1">
                    <mxGeometry x="310" y="490" width="120" height="60" as="geometry"/>
                </mxCell>
                <mxCell id="6" value="" style="endArrow=classic;startArrow=classic;html=1;entryX=0.75;entryY=1;entryDx=0;entryDy=0;exitX=0.25;exitY=1;exitDx=0;exitDy=0;" parent="1" source="2" target="5" edge="1">
                    <mxGeometry x="560" y="480" width="50" height="50" as="geometry">
                        <mxPoint x="910" y="720" as="sourcePoint"/>
                        <mxPoint x="960" y="670" as="targetPoint"/>
                        <Array as="points">
                            <mxPoint x="500" y="580"/>
                            <mxPoint x="400" y="580"/>
                        </Array>
                    </mxGeometry>
                </mxCell>
                <mxCell id="7" value="" style="endArrow=classic;startArrow=classic;html=1;exitX=0.25;exitY=1;exitDx=0;exitDy=0;entryX=0.75;entryY=1;entryDx=0;entryDy=0;" parent="1" source="4" target="2" edge="1">
                    <mxGeometry x="560" y="480" width="50" height="50" as="geometry">
                        <mxPoint x="630" y="630" as="sourcePoint"/>
                        <mxPoint x="620" y="680" as="targetPoint"/>
                        <Array as="points">
                            <mxPoint x="660" y="580"/>
                            <mxPoint x="560" y="580"/>
                        </Array>
                    </mxGeometry>
                </mxCell>
                <mxCell id="8" value="dblp article key" style="text;html=1;strokeColor=none;fillColor=none;align=center;verticalAlign=middle;whiteSpace=wrap;rounded=0;dashed=1;" parent="1" vertex="1">
                    <mxGeometry x="560" y="580" width="100" height="20" as="geometry"/>
                </mxCell>
                <mxCell id="9" value="dblp person key" style="text;html=1;strokeColor=none;fillColor=none;align=center;verticalAlign=middle;whiteSpace=wrap;rounded=0;dashed=1;" parent="1" vertex="1">
                    <mxGeometry x="400" y="580" width="100" height="20" as="geometry"/>
                </mxCell>
                <mxCell id="39" value="" style="group" vertex="1" connectable="0" parent="1">
                    <mxGeometry x="600" y="300" width="200" height="120" as="geometry"/>
                </mxCell>
                <mxCell id="10" value="OpenCitations" style="rounded=0;whiteSpace=wrap;html=1;dashed=1;align=left;verticalAlign=top;fontStyle=1" parent="39" vertex="1">
                    <mxGeometry width="200" height="120" as="geometry"/>
                </mxCell>
                <mxCell id="11" value="reference" style="rounded=0;whiteSpace=wrap;html=1;" parent="39" vertex="1">
                    <mxGeometry x="30" y="40" width="120" height="60" as="geometry"/>
                </mxCell>
                <mxCell id="33" value="" style="endArrow=classic;startArrow=classic;html=1;exitX=0.5;exitY=1;exitDx=0;exitDy=0;entryX=0.5;entryY=0;entryDx=0;entryDy=0;" edge="1" parent="1" source="11" target="4">
                    <mxGeometry width="50" height="50" relative="1" as="geometry">
                        <mxPoint x="500" y="290" as="sourcePoint"/>
                        <mxPoint x="645" y="290" as="targetPoint"/>
                    </mxGeometry>
                </mxCell>
                <mxCell id="27" value="" style="endArrow=classic;startArrow=classic;html=1;entryX=0;entryY=0.5;entryDx=0;entryDy=0;exitX=0.5;exitY=1;exitDx=0;exitDy=0;" edge="1" parent="1" source="24" target="5">
                    <mxGeometry width="50" height="50" relative="1" as="geometry">
                        <mxPoint x="755" y="290" as="sourcePoint"/>
                        <mxPoint x="370" y="480" as="targetPoint"/>
                        <Array as="points">
                            <mxPoint x="90" y="520"/>
                        </Array>
                    </mxGeometry>
                </mxCell>
                <mxCell id="40" value="doi" style="text;html=1;strokeColor=none;fillColor=none;align=left;verticalAlign=middle;whiteSpace=wrap;rounded=0;dashed=1;" vertex="1" parent="1">
                    <mxGeometry x="691" y="423" width="110" height="20" as="geometry"/>
                </mxCell>
                <mxCell id="31" value="" style="endArrow=classic;startArrow=classic;html=1;exitX=1;exitY=0.5;exitDx=0;exitDy=0;entryX=0;entryY=0.5;entryDx=0;entryDy=0;" edge="1" parent="1" source="16" target="11">
                    <mxGeometry width="50" height="50" relative="1" as="geometry">
                        <mxPoint x="650" y="370" as="sourcePoint"/>
                        <mxPoint x="860" y="370" as="targetPoint"/>
                    </mxGeometry>
                </mxCell>
            </root>
        </mxGraphModel>
    </diagram>
</mxfile>